# xmcd CD database file
#
# Track frame offsets:
#	182
#	23882
#	51270
#	82410
#	109322
#	140550
#	177545
#	194857
#	207205
#	219850
#	234780
#	246490
#
# Disc length: 3528 seconds
#
# Revision: 4
# Processed by: cddbd v1.5.2PL0 Copyright (c) Steve Scherf et al.
# Submitted via: CDex 1.70beta2
#
DISCID=ba0dc60c
DTITLE="Canonball" Adderly - In The Land of Hi-Fi - genie du jazz vol 5  1
DYEAR=1990
DGENRE=Jazz
TTITLE0=Just Friends
TTITLE1=I Got Rhythm
TTITLE2=Ease It
TTITLE3=Julie Ann
TTITLE4=Awful Mean
TTITLE5=There is no Greater Lover
TTITLE6=Broadway at Basin Street
TTITLE7=I Don't Care
TTITLE8=Casa De Marcel
TTITLE9=T's Tune
TTITLE10=Just Norman
TTITLE11=Blues for Bohemia
EXTD=YEAR: 1990
EXTT0=
EXTT1=
EXTT2=
EXTT3=
EXTT4=
EXTT5=
EXTT6=
EXTT7=
EXTT8=
EXTT9=
EXTT10=
EXTT11=
PLAYORDER=
